<svg width="240" height="40" viewBox="0 0 240 40" fill="none" xmlns="http://www.w3.org/2000/svg">
<g clip-path="url(#clip0_24_13)">
<path d="M230.532 9H221.49L212 30H219.565L221.199 25.8878H230.779L232.412 30H240L230.532 9ZM222.878 21.6832L226.011 13.8284L229.122 21.6832H222.878Z" fill="white"/>
<path d="M162 14.3828H170.149V30H176.851V14.3828H185V9H162V14.3828Z" fill="white"/>
<path d="M145.644 21.5908H157.489V17.3861H145.644V14.2904H159.511V9H139V30H160V24.802H145.644V21.5908Z" fill="white"/>
<path d="M135.932 12.7426V9H113.181V14.3828H125.418L113 26.2805V30H136V24.5941H123.65L135.932 12.7426Z" fill="white"/>
<path d="M97.9891 9C89.3871 9 84 12.5246 84 19.9885C84 27.4524 89.3654 31 97.9891 31C106.635 31 112 27.4293 112 19.9885C112 12.5476 106.635 9 97.9891 9ZM97.9891 25.4942C93.6881 25.4942 91.0597 23.9277 91.0597 19.9654C91.0597 15.9801 93.6881 14.4597 97.9891 14.4597C102.268 14.4597 104.94 15.9801 104.94 19.9654C104.94 23.9508 102.268 25.4942 97.9891 25.4942Z" fill="white"/>
<path d="M81.7557 16.6007C81.7557 12.165 78.9728 9 72.3439 9H58V30H64.9231V24.0627H69.3801L74.3575 30H83L77.2081 23.1848C80.1041 21.8911 81.7557 19.165 81.7557 16.6007ZM64.9231 13.9439H71.733C73.8371 13.9439 74.6742 15.099 74.6742 16.5776C74.6742 17.571 74.086 19.396 71.6199 19.396H64.9231V13.9439Z" fill="white"/>
<path d="M203.156 9L194.8 16.67V9H188V30H194.8V24.2013L197.356 21.9373L203.178 30H211.667L202.289 17.571L212 9H203.156Z" fill="white"/>
<path d="M39.9998 20.0882C39.9558 31.1355 30.947 40.0439 19.9119 39.9998C8.87674 39.9557 -0.04389 30.9591 0.000162457 19.9118C0.044215 8.86448 9.05295 -0.043938 20.0881 0.000163037C31.1453 0.0442641 40.0439 9.04088 39.9998 20.0882Z" fill="#221F1F"/>
<path d="M27.2031 29.9007C25.0886 33.6934 22.4674 36.8025 19.538 36.7364C17.7098 36.6922 15.9697 36.0087 14.3838 34.9282C14.8904 34.0021 18.0842 29.3715 27.2031 29.9007ZM39.4717 20.0882C39.4277 30.8268 30.6612 39.5147 19.9124 39.4486C9.16359 39.4045 0.529297 30.6504 0.529297 19.9118C0.529297 12.9438 4.00944 7.93834 7.31338 5.24818C11.3662 1.96265 14.1195 4.47641 15.0886 6.39481C14.9785 5.57894 14.6481 3.24158 13.745 1.56574C15.7274 0.882172 17.864 0.507313 20.0886 0.529363C30.8374 0.595515 39.5158 9.32753 39.4717 20.0882ZM18.9653 8.88652C21.7846 6.96812 26.6524 5.90969 29.2295 9.92289C27.6656 0.749869 20.9036 6.01995 18.9653 8.88652ZM15.0446 17.5524C15.6393 16.8909 16.3221 16.2293 17.1151 15.634C20.6393 12.9218 24.4939 12.2382 25.7494 14.1345C26.2339 14.8622 26.256 15.8765 25.8815 16.9791C27.137 14.9063 27.5335 12.9879 26.7626 11.9295C25.463 10.1654 21.4322 11.3782 17.7538 14.6417C16.6745 15.5458 15.7715 16.5601 15.0446 17.5524ZM8.89927 19.1841C10.6834 19.5149 12.6217 17.2437 13.2164 14.0684C13.8111 10.8931 12.864 8.07065 11.0799 7.71784C9.29574 7.38708 7.35744 9.65829 6.76273 12.8336C6.16802 15.9868 7.11515 18.8313 8.89927 19.1841ZM33.7008 15.3473C16.6305 26.7916 4.84644 20.9923 4.84644 20.9923C4.67023 24.9614 11.4763 37.1553 19.582 37.3097C27.7097 37.464 33.7008 15.3473 33.7008 15.3473ZM7.2473 12.8997C7.79796 9.98905 9.47196 7.87219 10.9918 8.1809C12.5116 8.46756 13.3045 11.0695 12.7759 13.9802C12.2252 16.8909 10.5512 19.0077 9.03143 18.699C7.48959 18.4124 6.69665 15.8104 7.2473 12.8997ZM10.4852 15.3694C11.168 15.5237 11.9169 14.6858 12.1812 13.5171C12.4455 12.3485 12.0931 11.268 11.4103 11.1357C10.9477 11.0254 10.4631 11.3782 10.1107 11.9736C10.4191 12.1279 10.5733 12.5249 10.4191 12.8556C10.2869 13.1643 9.97856 13.3187 9.67019 13.2525C9.53803 14.2889 9.86843 15.215 10.4852 15.3694Z" fill="#05BC52"/>
<g clip-path="url(#clip1_24_13)">
<path d="M40.3025 25.0695C40.3025 25.0695 39.2246 21.9305 35.5894 22.062C31.9541 22.1935 30.5363 24.7916 30.1585 26.4404C29.2607 30.3759 32.9867 38.7345 35.1411 39.7519C38.0586 41.129 44.4477 36.3685 45.8681 34.9318C47.4836 33.2953 49.2779 28.7841 46.271 26.0422C43.2641 23.3002 40.3025 25.0695 40.3025 25.0695Z" fill="url(#paint0_radial_24_13)"/>
<path d="M46.3756 26.0397C44.8218 24.6216 43.2806 24.4107 42.1536 24.5372C42.4388 24.7278 42.7091 24.9393 42.962 25.17C45.9689 27.9119 44.1733 32.4231 42.5578 34.0596C41.4661 35.165 37.4367 38.2333 34.3064 38.9677C34.5653 39.2854 34.8843 39.5504 35.2457 39.7481C38.1633 41.1265 44.5524 36.366 45.9727 34.928C47.5882 33.2866 49.3838 28.7816 46.3756 26.0397Z" fill="url(#paint1_linear_24_13)"/>
<path d="M46.3101 25.933C43.4052 23.2854 40.5443 24.9938 40.5443 24.9938V24.9851C39.4891 25.6452 37.9995 26.9169 37.9114 28.8759C38.9086 27.0347 40.7055 25.8052 42.758 25.8052C45.0119 25.8052 46.9599 27.2878 47.8765 29.4355C47.8438 28.1861 47.4094 26.9367 46.3101 25.933Z" fill="url(#paint2_radial_24_13)"/>
<path d="M34.7032 24.0644C36.3766 24.0644 37.8587 24.9329 38.7804 26.2841C39.2118 25.7812 39.7143 25.3421 40.2725 24.9801C40.0723 24.4838 38.8736 21.8783 35.577 22.0024C31.9254 22.1376 30.5076 24.7741 30.1298 26.4565C30.0562 26.8003 30.0141 27.1499 30.0039 27.5012C30.7418 25.4888 32.5676 24.0644 34.7032 24.0644Z" fill="url(#paint3_radial_24_13)"/>
<path d="M35.8009 24.3896L34.7243 23.438C34.7016 23.0409 35.5994 23.1067 36.676 23.9243C37.7526 24.7419 38.0674 26.2903 38.0674 26.2903L36.8561 27.9715C36.8561 27.9715 37.3938 26.3796 35.8009 24.3896Z" fill="#F6D9E1"/>
<path d="M42.8725 26.8052L41.6712 26.0608C41.5818 25.6799 42.438 25.6352 43.638 26.2072C45.7069 27.1923 45.824 30.0533 45.7648 30.3685C45.7056 30.6836 45.2674 30.8313 44.7977 30.3685C44.3281 29.9057 44.7499 28.4628 42.8725 26.8052Z" fill="#F6D9E1"/>
</g>
</g>
<defs>
<radialGradient id="paint0_radial_24_13" cx="0" cy="0" r="1" gradientUnits="userSpaceOnUse" gradientTransform="translate(41.2922 28.5521) scale(18.6397 18.366)">
<stop stop-color="#BA3136"/>
<stop offset="0.39" stop-color="#E1282C"/>
<stop offset="0.65" stop-color="#FFC1AA"/>
</radialGradient>
<linearGradient id="paint1_linear_24_13" x1="37.2013" y1="30.1452" x2="47.9046" y2="38.5615" gradientUnits="userSpaceOnUse">
<stop offset="0.23" stop-color="#E1282C" stop-opacity="0"/>
<stop offset="0.75" stop-color="#940004"/>
</linearGradient>
<radialGradient id="paint2_radial_24_13" cx="0" cy="0" r="1" gradientUnits="userSpaceOnUse" gradientTransform="translate(41 32) rotate(-43.2643) scale(11.6726 9.86289)">
<stop offset="0.53" stop-color="#EFDDDC" stop-opacity="0"/>
<stop offset="0.71" stop-color="white"/>
</radialGradient>
<radialGradient id="paint3_radial_24_13" cx="0" cy="0" r="1" gradientUnits="userSpaceOnUse" gradientTransform="translate(35 30.5) rotate(-85.9144) scale(14.0357 13.5902)">
<stop offset="0.43" stop-color="#EFDDDC" stop-opacity="0"/>
<stop offset="0.605" stop-color="white"/>
</radialGradient>
<clipPath id="clip0_24_13">
<rect width="240" height="40" fill="white"/>
</clipPath>
<clipPath id="clip1_24_13">
<rect width="18" height="18" fill="white" transform="translate(30 22)"/>
</clipPath>
</defs>
</svg>
